<svg width="50" height="50" viewBox="0 0 50 50" fill="none" xmlns="http://www.w3.org/2000/svg">
<rect width="50" height="50" rx="10" fill="#5061FF"/>
<path d="M25 33.75C24.7824 33.75 24.5686 33.6932 24.3797 33.5852L13.4375 27.3313C13.3424 27.2764 13.2346 27.2475 13.1248 27.2476C13.015 27.2476 12.9071 27.2766 12.8121 27.3315C12.7171 27.3865 12.6382 27.4655 12.5834 27.5607C12.5286 27.6558 12.4998 27.7637 12.5 27.8735V33.75C12.4998 33.9731 12.5593 34.1922 12.6724 34.3846C12.7855 34.5769 12.9479 34.7355 13.143 34.8438L24.393 41.0938C24.5787 41.197 24.7876 41.2511 25 41.2511C25.2124 41.2511 25.4213 41.197 25.607 41.0938L36.857 34.8438C37.0521 34.7355 37.2145 34.5769 37.3276 34.3846C37.4407 34.1922 37.5002 33.9731 37.5 33.75V27.8735C37.5002 27.7637 37.4714 27.6558 37.4166 27.5607C37.3618 27.4655 37.2829 27.3865 37.1879 27.3315C37.0929 27.2766 36.985 27.2476 36.8752 27.2476C36.7654 27.2475 36.6576 27.2764 36.5625 27.3313L25.6203 33.5852C25.4314 33.6932 25.2176 33.75 25 33.75Z" fill="white"/>
<path d="M43.7437 19.8829V19.8743C43.7235 19.6761 43.6562 19.4857 43.5475 19.3188C43.4388 19.1519 43.2918 19.0135 43.1187 18.9149L25.6187 8.9149C25.4298 8.80692 25.216 8.75012 24.9984 8.75012C24.7808 8.75012 24.567 8.80692 24.3781 8.9149L6.8781 18.9149C6.68684 19.0243 6.52788 19.1822 6.41732 19.3728C6.30676 19.5633 6.24854 19.7797 6.24854 20.0001C6.24854 20.2204 6.30676 20.4368 6.41732 20.6273C6.52788 20.8179 6.68684 20.9759 6.8781 21.0852L24.3781 31.0852C24.567 31.1932 24.7808 31.25 24.9984 31.25C25.216 31.25 25.4298 31.1932 25.6187 31.0852L41.0156 22.2876C41.0394 22.2738 41.0664 22.2666 41.0939 22.2666C41.1214 22.2666 41.1484 22.2739 41.1721 22.2877C41.1959 22.3015 41.2156 22.3213 41.2293 22.3452C41.2429 22.369 41.2501 22.396 41.25 22.4235V33.7149C41.25 34.3876 41.7672 34.9649 42.4398 34.9985C42.6088 35.0066 42.7777 34.9804 42.9363 34.9213C43.0949 34.8623 43.2398 34.7716 43.3623 34.6549C43.4848 34.5382 43.5823 34.3978 43.649 34.2422C43.7156 34.0867 43.75 33.9193 43.75 33.7501V20.0001C43.7499 19.9609 43.7478 19.9218 43.7437 19.8829V19.8829Z" fill="white"/>
</svg>
